<svg width="1584" height="396" viewBox="0 0 1584 396" fill="none" xmlns="http://www.w3.org/2000/svg">
<rect width="1584" height="396" fill="#F5F5F5"/>
<g id="Awesome banner" clip-path="url(#clip0_0_1)">
<rect width="1584" height="396" fill="url(#paint0_linear_0_1)"/>
<ellipse id="Ellipse 2" cx="323" cy="64" rx="285" ry="288" fill="url(#paint1_linear_0_1)" fill-opacity="0.1"/>
<g id="copyright">
<path d="M75.95 334.52L72.30 334.52L72.30 311.16L77.20 311.16L83.70 330.04Q83.60 329.02 83.50 327.62Q83.41 326.23 83.33 324.79Q83.25 323.35 83.25 322.23L83.25 311.16L86.90 311.16L86.90 334.52L82 334.52L75.57 315.64Q75.63 316.57 75.73 317.88Q75.82 319.19 75.89 320.57Q75.95 321.94 75.95 323.10L75.95 334.52M98.80 334.84Q96.46 334.84 94.67 333.96Q92.88 333.08 91.89 331.53Q90.90 329.98 90.90 327.93Q90.90 325.78 92.13 324.18Q93.36 322.58 95.34 322.17L95.34 322.10Q93.65 321.75 92.61 320.38Q91.57 319 91.57 317.11Q91.57 315.26 92.48 313.85Q93.39 312.44 95.02 311.64Q96.66 310.84 98.80 310.84Q100.94 310.84 102.59 311.64Q104.24 312.44 105.15 313.85Q106.06 315.26 106.06 317.11Q106.06 319 105.01 320.38Q103.95 321.75 102.26 322.10L102.26 322.17Q104.24 322.58 105.47 324.18Q106.70 325.78 106.70 327.93Q106.70 329.98 105.71 331.53Q104.72 333.08 102.93 333.96Q101.14 334.84 98.80 334.84M98.80 320.73Q100.30 320.73 101.23 319.82Q102.16 318.90 102.16 317.46Q102.16 315.99 101.23 315.08Q100.30 314.17 98.80 314.17Q97.30 314.17 96.37 315.08Q95.44 315.99 95.44 317.46Q95.44 318.90 96.37 319.82Q97.30 320.73 98.80 320.73M98.80 331.45Q100.56 331.45 101.68 330.42Q102.80 329.40 102.80 327.74Q102.80 326.04 101.68 325Q100.56 323.96 98.80 323.96Q97.04 323.96 95.92 325Q94.80 326.04 94.80 327.74Q94.80 329.40 95.92 330.42Q97.04 331.45 98.80 331.45M114.35 334.52L110.70 334.52L110.70 311.16L115.60 311.16L122.10 330.04Q122 329.02 121.90 327.62Q121.81 326.23 121.73 324.79Q121.65 323.35 121.65 322.23L121.65 311.16L125.30 311.16L125.30 334.52L120.40 334.52L113.97 315.64Q114.03 316.57 114.13 317.88Q114.22 319.19 114.29 320.57Q114.35 321.94 114.35 323.10" fill="white" fill-opacity="0.9"/>
<path d="M161.48 325.24L151.24 325.24L151.24 322.68L161.48 322.68" fill="white" fill-opacity="0.9"/>
<path d="M195.02 334.84Q191.82 334.84 189.96 333.05Q188.11 331.26 188.11 328.12L188.11 317.56Q188.11 314.42 189.96 312.63Q191.82 310.84 195.02 310.84Q198.15 310.84 200.01 312.65Q201.87 314.46 201.87 317.56L198.99 317.56Q198.99 315.58 197.95 314.50Q196.91 313.43 195.02 313.43Q193.13 313.43 192.06 314.50Q190.99 315.58 190.99 317.56L190.99 328.12Q190.99 330.10 192.06 331.18Q193.13 332.25 195.02 332.25Q196.91 332.25 197.95 331.18Q198.99 330.10 198.99 328.12L201.87 328.12Q201.87 331.22 200.01 333.03Q198.15 334.84 195.02 334.84" fill="white" fill-opacity="0.9"/>
<path d="M213.96 334.84Q210.83 334.84 209 333.02Q207.18 331.19 207.18 327.80L207.18 317.88Q207.18 314.49 209 312.66Q210.83 310.84 213.96 310.84Q217.10 310.84 218.92 312.66Q220.75 314.49 220.75 317.85L220.75 327.80Q220.75 331.19 218.92 333.02Q217.10 334.84 213.96 334.84M213.96 332.25Q215.85 332.25 216.86 331.18Q217.87 330.10 217.87 328.12L217.87 317.56Q217.87 315.58 216.86 314.50Q215.85 313.43 213.96 313.43Q212.11 313.43 211.08 314.50Q210.06 315.58 210.06 317.56L210.06 328.12Q210.06 330.10 211.08 331.18Q212.11 332.25 213.96 332.25" fill="white" fill-opacity="0.9"/>
<path d="M228.65 334.52L225.87 334.52L225.87 311.16L230.12 311.16L233.10 321.27L236.20 311.16L240.46 311.16L240.46 334.52L237.67 334.52L237.67 323.48Q237.67 321.91 237.72 319.88Q237.77 317.85 237.87 315.77Q237.96 313.69 238.09 312.02L234.31 324.09L231.82 324.09L228.20 312.31Q228.46 314.68 228.55 317.50Q228.65 320.31 228.65 323.48" fill="white" fill-opacity="0.9"/>
<path d="M247.85 334.52L245.07 334.52L245.07 311.16L249.32 311.16L252.30 321.27L255.40 311.16L259.66 311.16L259.66 334.52L256.87 334.52L256.87 323.48Q256.87 321.91 256.92 319.88Q256.97 317.85 257.07 315.77Q257.16 313.69 257.29 312.02L253.51 324.09L251.02 324.09L247.40 312.31Q247.66 314.68 247.75 317.50Q247.85 320.31 247.85 323.48" fill="white" fill-opacity="0.9"/>
<path d="M271.56 334.84Q268.30 334.84 266.57 333.03Q264.84 331.22 264.84 328.12L264.84 311.16L267.72 311.16L267.72 328.12Q267.72 330.04 268.67 331.16Q269.61 332.28 271.56 332.28Q273.48 332.28 274.44 331.16Q275.40 330.04 275.40 328.12L275.40 311.16L278.28 311.16L278.28 328.12Q278.28 331.26 276.57 333.05Q274.86 334.84 271.56 334.84" fill="white" fill-opacity="0.9"/>
<path d="M286.83 334.52L284.04 334.52L284.04 311.16L287.88 311.16L295.02 331.16Q294.95 330.36 294.87 329.19Q294.79 328.02 294.75 326.73Q294.70 325.43 294.70 324.28L294.70 311.16L297.48 311.16L297.48 334.52L293.64 334.52L286.54 314.52Q286.60 315.29 286.67 316.46Q286.73 317.62 286.78 318.92Q286.83 320.22 286.83 321.40" fill="white" fill-opacity="0.9"/>
<path d="M316.20 334.52L303.72 334.52L303.72 331.90L308.49 331.90L308.49 313.78L303.72 313.78L303.72 311.16L316.20 311.16L316.20 313.78L311.43 313.78L311.43 331.90L316.20 331.90" fill="white" fill-opacity="0.9"/>
<path d="M330.60 334.52L327.72 334.52L327.72 313.78L321.32 313.78L321.32 311.16L337 311.16L337 313.78L330.60 313.78" fill="white" fill-opacity="0.9"/>
<path d="M349.80 334.52L346.92 334.52L346.92 325.78L339.88 311.16L342.95 311.16L347.50 320.76Q347.88 321.56 348.11 322.12Q348.33 322.68 348.39 322.94Q348.46 322.68 348.70 322.12Q348.94 321.56 349.32 320.76L353.87 311.16L356.84 311.16L349.80 325.78" fill="white" fill-opacity="0.9"/>
<path d="M382.83 334.52L380.04 334.52L380.04 311.16L383.88 311.16L391.02 331.16Q390.95 330.36 390.87 329.19Q390.79 328.02 390.75 326.73Q390.70 325.43 390.70 324.28L390.70 311.16L393.48 311.16L393.48 334.52L389.64 334.52L382.54 314.52Q382.60 315.29 382.67 316.46Q382.73 317.62 382.78 318.92Q382.83 320.22 382.83 321.40" fill="white" fill-opacity="0.9"/>
<path d="M405.96 334.84Q402.83 334.84 401 333.02Q399.18 331.19 399.18 327.80L399.18 317.88Q399.18 314.49 401 312.66Q402.83 310.84 405.96 310.84Q409.10 310.84 410.92 312.66Q412.75 314.49 412.75 317.85L412.75 327.80Q412.75 331.19 410.92 333.02Q409.10 334.84 405.96 334.84M405.96 332.25Q407.85 332.25 408.86 331.18Q409.87 330.10 409.87 328.12L409.87 317.56Q409.87 315.58 408.86 314.50Q407.85 313.43 405.96 313.43Q404.11 313.43 403.08 314.50Q402.06 315.58 402.06 317.56L402.06 328.12Q402.06 330.10 403.08 331.18Q404.11 332.25 405.96 332.25" fill="white" fill-opacity="0.9"/>
<path d="M424.55 334.52L418.51 334.52L418.51 311.16L424.55 311.16Q426.83 311.16 428.47 312.02Q430.12 312.89 431.03 314.46Q431.95 316.02 431.95 318.17L431.95 327.48Q431.95 329.62 431.03 331.21Q430.12 332.79 428.47 333.66Q426.83 334.52 424.55 334.52M421.39 313.72L421.39 331.96L424.55 331.96Q426.67 331.96 427.87 330.78Q429.07 329.59 429.07 327.48L429.07 318.17Q429.07 316.09 427.87 314.90Q426.67 313.72 424.55 313.72" fill="white" fill-opacity="0.9"/>
<path d="M451.40 334.52L437.96 334.52L437.96 311.16L451.40 311.16L451.40 313.78L440.81 313.78L440.81 321.02L450.28 321.02L450.28 323.58L440.81 323.58L440.81 331.90L451.40 331.90" fill="white" fill-opacity="0.9"/>
<path d="M463.69 334.84Q460.30 334.84 458.28 333.05Q456.27 331.26 456.27 328.12L459.15 328.12Q459.15 330.07 460.39 331.18Q461.64 332.28 463.69 332.28Q465.67 332.28 466.86 331.13Q468.04 329.98 468.04 328.12Q468.04 326.71 467.29 325.67Q466.54 324.63 465.13 324.25L461.58 323.26Q459.37 322.62 458.11 320.97Q456.84 319.32 456.84 317.08Q456.84 315.22 457.67 313.82Q458.51 312.41 460.01 311.62Q461.51 310.84 463.47 310.84Q465.45 310.84 466.97 311.62Q468.49 312.41 469.35 313.80Q470.22 315.19 470.22 317.02L467.34 317.02Q467.34 315.42 466.25 314.41Q465.16 313.40 463.47 313.40Q461.77 313.40 460.71 314.41Q459.66 315.42 459.66 317.02Q459.66 318.30 460.35 319.21Q461.03 320.12 462.28 320.47L465.93 321.50Q468.27 322.14 469.56 323.91Q470.86 325.69 470.86 328.12Q470.86 331.19 468.91 333.02Q466.95 334.84 463.69 334.84" fill="white" fill-opacity="0.9"/>
</g>
<path d="M83.20 197.64L73.12 197.64L73.12 180.12L75.28 180.12L75.28 195.67L83.20 195.67" fill="white" fill-opacity="0.7"/>
<path d="M90.45 197.88Q88.41 197.88 87.21 196.74Q86.01 195.60 86.01 193.75Q86.01 192.53 86.56 191.62Q87.11 190.70 88.10 190.19Q89.08 189.67 90.35 189.67L94.43 189.67L94.43 188.64Q94.43 186.07 91.62 186.07Q90.38 186.07 89.61 186.53Q88.84 186.98 88.79 187.80L86.63 187.80Q86.75 186.24 88.08 185.22Q89.42 184.20 91.62 184.20Q94.02 184.20 95.31 185.35Q96.59 186.50 96.59 188.57L96.59 197.64L94.46 197.64L94.46 195.24L94.41 195.24Q94.22 196.46 93.18 197.17Q92.15 197.88 90.45 197.88M90.98 196.06Q92.56 196.06 93.50 195.29Q94.43 194.52 94.43 193.20L94.43 191.35L90.59 191.35Q89.54 191.35 88.88 191.99Q88.22 192.62 88.22 193.68Q88.22 194.78 88.95 195.42Q89.68 196.06 90.98 196.06" fill="white" fill-opacity="0.7"/>
<path d="M106.77 197.88Q105.28 197.88 104.32 197.15Q103.36 196.42 103.19 195.12L103.17 195.12L103.17 197.64L101.01 197.64L101.01 180.12L103.17 180.12L103.17 183.96L103.12 186.96L103.14 186.96Q103.34 185.69 104.31 184.94Q105.28 184.20 106.77 184.20Q108.76 184.20 109.94 185.52Q111.11 186.84 111.11 189.12L111.11 192.98Q111.11 195.24 109.94 196.56Q108.76 197.88 106.77 197.88M106.05 196.01Q107.42 196.01 108.18 195.29Q108.95 194.57 108.95 192.96L108.95 189.12Q108.95 187.49 108.18 186.78Q107.42 186.07 106.05 186.07Q104.73 186.07 103.95 186.91Q103.17 187.75 103.17 189.24L103.17 192.84Q103.17 194.33 103.95 195.17Q104.73 196.01 106.05 196.01" fill="white" fill-opacity="0.7"/>
<path d="M120.40 197.83Q118.02 197.83 116.62 196.44Q115.22 195.05 115.22 192.55L115.22 189.53Q115.22 187.01 116.61 185.63QNaN 184.25 120.40 184.25Q122.80 184.25 124.19 185.63Q125.58 187.01 125.58 189.53L125.58 192.55Q125.58 195.05 124.18 196.44Q122.78 197.83 120.40 197.83M120.40 195.91Q121.82 195.91 122.62 195.12Q123.42 194.33 123.42 192.79L123.42 189.29Q123.42 187.75 122.62 186.96Q121.82 186.17 120.40 186.17Q119.01 186.17 118.19 186.96Q117.38 187.75 117.38 189.29L117.38 192.79Q117.38 194.33 118.19 195.12Q119.01 195.91 120.40 195.91" fill="white" fill-opacity="0.7"/>
<path d="M134.78 197.88Q132.50 197.88 131.13 196.52Q129.76 195.17 129.76 192.84L129.76 184.44L131.92 184.44L131.92 192.84Q131.92 194.28 132.69 195.13Q133.46 195.98 134.78 195.98Q136.12 195.98 136.90 195.13Q137.68 194.28 137.68 192.84L137.68 184.44L139.84 184.44L139.84 192.84Q139.84 195.17 138.45 196.52Q137.06 197.88 134.78 197.88" fill="white" fill-opacity="0.7"/>
<path d="M146.85 197.64L144.69 197.64L144.69 184.44L146.85 184.44L146.85 186.96L146.90 186.96Q147.06 185.69 147.98 184.94Q148.89 184.20 150.42 184.20Q152.49 184.20 153.60 185.44Q154.72 186.67 154.72 188.95L154.72 190.08L152.56 190.08L152.56 188.95Q152.56 186.07 149.75 186.07Q148.34 186.07 147.59 186.89Q146.85 187.70 146.85 189.24" fill="white" fill-opacity="0.7"/>
<path d="M175.17 197.64L173.03 197.64L173.03 180.12L178.43 180.12Q179.99 180.12 181.17 180.76Q182.34 181.39 182.99 182.52Q183.64 183.65 183.64 185.16Q183.64 186.94 182.73 188.21Q181.82 189.48 180.30 189.98L183.88 197.64L181.50 197.64L178.07 190.20L175.17 190.20L175.17 197.64M175.17 182.06L175.17 188.26L178.43 188.26Q179.78 188.26 180.59 187.40Q181.41 186.55 181.41 185.16Q181.41 183.74 180.59 182.90Q179.78 182.06 178.43 182.06" fill="white" fill-opacity="0.7"/>
<path d="M192.40 197.88Q190.07 197.88 188.64 196.48Q187.22 195.07 187.22 192.60L187.22 189.48Q187.22 187.01 188.64 185.60Q190.07 184.20 192.40 184.20Q193.96 184.20 195.12 184.82Q196.29 185.45 196.94 186.58Q197.58 187.70 197.58 189.24L197.58 191.59L189.33 191.59L189.33 192.84Q189.33 194.30 190.17 195.16Q191.01 196.01 192.40 196.01Q193.60 196.01 194.38 195.54Q195.16 195.07 195.33 194.28L197.49 194.28Q197.27 195.94 195.88 196.91Q194.49 197.88 192.40 197.88M189.33 189.24L189.33 189.91L195.47 189.91L195.47 189.24Q195.47 187.68 194.67 186.83Q193.86 185.98 192.40 185.98Q190.94 185.98 190.13 186.83Q189.33 187.68 189.33 189.24" fill="white" fill-opacity="0.7"/>
<path d="M207.33 197.83L206.27 197.83Q204.06 197.83 202.85 196.84Q201.64 195.84 201.64 194.02L203.80 194.02Q203.80 194.93 204.45 195.44Q205.10 195.96 206.27 195.96L207.33 195.96Q208.53 195.96 209.19 195.43Q209.85 194.90 209.85 193.94Q209.85 192.24 208.29 192.02L204.64 191.50Q203.30 191.30 202.55 190.38Q201.81 189.46 201.81 187.94Q201.81 186.22 203 185.23Q204.18 184.25 206.27 184.25L207.33 184.25Q209.25 184.25 210.46 185.20Q211.67 186.14 211.77 187.68L209.58 187.68Q209.54 186.98 208.92 186.53Q208.31 186.07 207.33 186.07L206.27 186.07Q205.17 186.07 204.54 186.58Q203.92 187.08 203.92 187.94Q203.92 189.34 205.19 189.53L208.60 190.01Q211.96 190.49 211.96 193.94Q211.96 195.79 210.75 196.81Q209.54 197.83 207.33 197.83" fill="white" fill-opacity="0.7"/>
<path d="M221.20 197.83Q218.82 197.83 217.42 196.44Q216.02 195.05 216.02 192.55L216.02 189.53Q216.02 187.01 217.41 185.63Q218.80 184.25 221.20 184.25Q223.60 184.25 224.99 185.63Q226.38 187.01 226.38 189.53L226.38 192.55Q226.38 195.05 224.98 196.44Q223.58 197.83 221.20 197.83M221.20 195.91Q222.62 195.91 223.42 195.12Q224.22 194.33 224.22 192.79L224.22 189.29Q224.22 187.75 223.42 186.96Q222.62 186.17 221.20 186.17Q219.81 186.17 218.99 186.96Q218.18 187.75 218.18 189.29L218.18 192.79Q218.18 194.33 218.99 195.12Q219.81 195.91 221.20 195.91" fill="white" fill-opacity="0.7"/>
<path d="M235.58 197.88Q233.30 197.88 231.93 196.52Q230.56 195.17 230.56 192.84L230.56 184.44L232.72 184.44L232.72 192.84Q232.72 194.28 233.49 195.13Q234.26 195.98 235.58 195.98Q236.92 195.98 237.70 195.13Q238.48 194.28 238.48 192.84L238.48 184.44L240.64 184.44L240.64 192.84Q240.64 195.17 239.25 196.52Q237.86 197.88 235.58 197.88" fill="white" fill-opacity="0.7"/>
<path d="M247.65 197.64L245.49 197.64L245.49 184.44L247.65 184.44L247.65 186.96L247.70 186.96Q247.86 185.69 248.78 184.94Q249.69 184.20 251.22 184.20Q253.29 184.20 254.40 185.44Q255.52 186.67 255.52 188.95L255.52 190.08L253.36 190.08L253.36 188.95Q253.36 186.07 250.55 186.07Q249.14 186.07 248.39 186.89Q247.65 187.70 247.65 189.24" fill="white" fill-opacity="0.7"/>
<path d="M264.59 197.88Q262.19 197.88 260.75 196.54Q259.31 195.19 259.31 192.84L259.31 189.24Q259.31 186.89 260.75 185.54Q262.19 184.20 264.59 184.20Q266.87 184.20 268.28 185.42Q269.68 186.65 269.75 188.76L267.59 188.76Q267.52 187.49 266.73 186.80Q265.94 186.12 264.59 186.12Q263.18 186.12 262.32 186.92Q261.47 187.73 261.47 189.22L261.47 192.84Q261.47 194.33 262.32 195.14Q263.18 195.96 264.59 195.96Q265.94 195.96 266.73 195.26Q267.52 194.57 267.59 193.32L269.75 193.32Q269.68 195.43 268.28 196.66Q266.87 197.88 264.59 197.88" fill="white" fill-opacity="0.7"/>
<path d="M278.80 197.88Q276.47 197.88 275.04 196.48Q273.62 195.07 273.62 192.60L273.62 189.48Q273.62 187.01 275.04 185.60Q276.47 184.20 278.80 184.20Q280.36 184.20 281.52 184.82Q282.69 185.45 283.34 186.58Q283.98 187.70 283.98 189.24L283.98 191.59L275.73 191.59L275.73 192.84Q275.73 194.30 276.57 195.16Q277.41 196.01 278.80 196.01Q280 196.01 280.78 195.54Q281.56 195.07 281.73 194.28L283.89 194.28Q283.67 195.94 282.28 196.91Q280.89 197.88 278.80 197.88M275.73 189.24L275.73 189.91L281.87 189.91L281.87 189.24Q281.87 187.68 281.07 186.83Q280.26 185.98 278.80 185.98Q277.34 185.98 276.53 186.83Q275.73 187.68 275.73 189.24" fill="white" fill-opacity="0.7"/>
<path d="M293.73 197.83L292.67 197.83Q290.46 197.83 289.25 196.84Q288.04 195.84 288.04 194.02L290.20 194.02Q290.20 194.93 290.85 195.44Q291.50 195.96 292.67 195.96L293.73 195.96Q294.93 195.96 295.59 195.43Q296.25 194.90 296.25 193.94Q296.25 192.24 294.69 192.02L291.04 191.50Q289.70 191.30 288.95 190.38Q288.21 189.46 288.21 187.94Q288.21 186.22 289.40 185.23Q290.58 184.25 292.67 184.25L293.73 184.25Q295.65 184.25 296.86 185.20Q298.07 186.14 298.17 187.68L295.98 187.68Q295.94 186.98 295.32 186.53Q294.71 186.07 293.73 186.07L292.67 186.07Q291.57 186.07 290.94 186.58Q290.32 187.08 290.32 187.94Q290.32 189.34 291.59 189.53L295 190.01Q298.36 190.49 298.36 193.94Q298.36 195.79 297.15 196.81Q295.94 197.83 293.73 197.83" fill="white" fill-opacity="0.7"/>
<path d="M328.12 197.64L316.84 197.64L316.84 195.67L321.52 195.67L321.52 186.41L317.32 186.41L317.32 184.44L323.68 184.44L323.68 195.67L328.12 195.67L328.12 197.64M322.36 182.06Q321.57 182.06 321.11 181.66Q320.66 181.25 320.66 180.55Q320.66 179.83 321.11 179.41Q321.57 178.99 322.36 178.99Q323.15 178.99 323.61 179.41Q324.06 179.83 324.06 180.55Q324.06 181.25 323.61 181.66Q323.15 182.06 322.36 182.06" fill="white" fill-opacity="0.7"/>
<path d="M336.93 197.83L335.87 197.83Q333.66 197.83 332.45 196.84Q331.24 195.84 331.24 194.02L333.40 194.02Q333.40 194.93 334.05 195.44Q334.70 195.96 335.87 195.96L336.93 195.96Q338.13 195.96 338.79 195.43Q339.45 194.90 339.45 193.94Q339.45 192.24 337.89 192.02L334.24 191.50Q332.90 191.30 332.15 190.38Q331.41 189.46 331.41 187.94Q331.41 186.22 332.60 185.23Q333.78 184.25 335.87 184.25L336.93 184.25Q338.85 184.25 340.06 185.20Q341.27 186.14 341.37 187.68L339.18 187.68Q339.14 186.98 338.52 186.53Q337.91 186.07 336.93 186.07L335.87 186.07Q334.77 186.07 334.14 186.58Q333.52 187.08 333.52 187.94Q333.52 189.34 334.79 189.53L338.20 190.01Q341.56 190.49 341.56 193.94Q341.56 195.79 340.35 196.81Q339.14 197.83 336.93 197.83" fill="white" fill-opacity="0.7"/>
<path d="M351.33 197.83L350.27 197.83Q348.06 197.83 346.85 196.84Q345.64 195.84 345.64 194.02L347.80 194.02Q347.80 194.93 348.45 195.44Q349.10 195.96 350.27 195.96L351.33 195.96Q352.53 195.96 353.19 195.43Q353.85 194.90 353.85 193.94Q353.85 192.24 352.29 192.02L348.64 191.50Q347.30 191.30 346.55 190.38Q345.81 189.46 345.81 187.94Q345.81 186.22 347 185.23Q348.18 184.25 350.27 184.25L351.33 184.25Q353.25 184.25 354.46 185.20Q355.67 186.14 355.77 187.68L353.58 187.68Q353.54 186.98 352.92 186.53Q352.31 186.07 351.33 186.07L350.27 186.07Q349.17 186.07 348.54 186.58Q347.92 187.08 347.92 187.94Q347.92 189.34 349.19 189.53L352.60 190.01Q355.96 190.49 355.96 193.94Q355.96 195.79 354.75 196.81Q353.54 197.83 351.33 197.83" fill="white" fill-opacity="0.7"/>
<path d="M365.18 197.88Q362.90 197.88 361.53 196.52Q360.16 195.17 360.16 192.84L360.16 184.44L362.32 184.44L362.32 192.84Q362.32 194.28 363.09 195.13Q363.86 195.98 365.18 195.98Q366.52 195.98 367.30 195.13Q368.08 194.28 368.08 192.84L368.08 184.44L370.24 184.44L370.24 192.84Q370.24 195.17 368.85 196.52Q367.46 197.88 365.18 197.88" fill="white" fill-opacity="0.7"/>
<path d="M379.60 197.88Q377.27 197.88 375.84 196.48Q374.42 195.07 374.42 192.60L374.42 189.48Q374.42 187.01 375.84 185.60Q377.27 184.20 379.60 184.20Q381.16 184.20 382.32 184.82Q383.49 185.45 384.14 186.58Q384.78 187.70 384.78 189.24L384.78 191.59L376.53 191.59L376.53 192.84Q376.53 194.30 377.37 195.16Q378.21 196.01 379.60 196.01Q380.80 196.01 381.58 195.54Q382.36 195.07 382.53 194.28L384.69 194.28Q384.47 195.94 383.08 196.91Q381.69 197.88 379.60 197.88M376.53 189.24L376.53 189.91L382.67 189.91L382.67 189.24Q382.67 187.68 381.87 186.83Q381.06 185.98 379.60 185.98Q378.14 185.98 377.33 186.83Q376.53 187.68 376.53 189.24" fill="white" fill-opacity="0.7"/>
<path d="M394.53 197.83L393.47 197.83Q391.26 197.83 390.05 196.84Q388.84 195.84 388.84 194.02L391 194.02Q391 194.93 391.65 195.44Q392.30 195.96 393.47 195.96L394.53 195.96Q395.73 195.96 396.39 195.43Q397.05 194.90 397.05 193.94Q397.05 192.24 395.49 192.02L391.84 191.50Q390.50 191.30 389.75 190.38Q389.01 189.46 389.01 187.94Q389.01 186.22 390.20 185.23Q391.38 184.25 393.47 184.25L394.53 184.25Q396.45 184.25 397.66 185.20Q398.87 186.14 398.97 187.68L396.78 187.68Q396.74 186.98 396.12 186.53Q395.51 186.07 394.53 186.07L393.47 186.07Q392.37 186.07 391.74 186.58Q391.12 187.08 391.12 187.94Q391.12 189.34 392.39 189.53L395.80 190.01Q399.16 190.49 399.16 193.94Q399.16 195.79 397.95 196.81Q396.74 197.83 394.53 197.83" fill="white" fill-opacity="0.7"/>
<path d="M422.99 197.88Q420.59 197.88 419.15 196.54Q417.71 195.19 417.71 192.84L417.71 189.24Q417.71 186.89 419.15 185.54Q420.59 184.20 422.99 184.20Q425.27 184.20 426.68 185.42Q428.08 186.65 428.15 188.76L425.99 188.76Q425.92 187.49 425.13 186.80Q424.34 186.12 422.99 186.12Q421.58 186.12 420.72 186.92Q419.87 187.73 419.87 189.22L419.87 192.84Q419.87 194.33 420.72 195.14Q421.58 195.96 422.99 195.96Q424.34 195.96 425.13 195.26Q425.92 194.57 425.99 193.32L428.15 193.32Q428.08 195.43 426.68 196.66Q425.27 197.88 422.99 197.88" fill="white" fill-opacity="0.7"/>
<path d="M437.20 197.88Q434.87 197.88 433.44 196.48Q432.02 195.07 432.02 192.60L432.02 189.48Q432.02 187.01 433.44 185.60Q434.87 184.20 437.20 184.20Q438.76 184.20 439.92 184.82Q441.09 185.45 441.74 186.58Q442.38 187.70 442.38 189.24L442.38 191.59L434.13 191.59L434.13 192.84Q434.13 194.30 434.97 195.16Q435.81 196.01 437.20 196.01Q438.40 196.01 439.18 195.54Q439.96 195.07 440.13 194.28L442.29 194.28Q442.07 195.94 440.68 196.91Q439.29 197.88 437.20 197.88M434.13 189.24L434.13 189.91L440.27 189.91L440.27 189.24Q440.27 187.68 439.47 186.83Q438.66 185.98 437.20 185.98Q435.74 185.98 434.93 186.83Q434.13 187.68 434.13 189.24" fill="white" fill-opacity="0.7"/>
<path d="M449.25 197.64L447.09 197.64L447.09 184.44L449.25 184.44L449.25 186.96L449.30 186.96Q449.46 185.69 450.38 184.94Q451.29 184.20 452.82 184.20Q454.89 184.20 456 185.44Q457.12 186.67 457.12 188.95L457.12 190.08L454.96 190.08L454.96 188.95Q454.96 186.07 452.15 186.07Q450.74 186.07 449.99 186.89Q449.25 187.70 449.25 189.24" fill="white" fill-opacity="0.7"/>
<path d="M471.16 197.64L467.32 197.64Q465.69 197.64 464.70 196.69Q463.72 195.74 463.72 194.16L463.72 186.41L459.93 186.41L459.93 184.44L463.72 184.44L463.72 180.72L465.88 180.72L465.88 184.44L471.28 184.44L471.28 186.41L465.88 186.41L465.88 194.16Q465.88 194.83 466.28 195.25Q466.67 195.67 467.32 195.67L471.16 195.67" fill="white" fill-opacity="0.7"/>
<path d="M486.52 197.64L475.24 197.64L475.24 195.67L479.92 195.67L479.92 186.41L475.72 186.41L475.72 184.44L482.08 184.44L482.08 195.67L486.52 195.67L486.52 197.64M480.76 182.06Q479.97 182.06 479.51 181.66Q479.06 181.25 479.06 180.55Q479.06 179.83 479.51 179.41Q479.97 178.99 480.76 178.99Q481.55 178.99 482.01 179.41Q482.46 179.83 482.46 180.55Q482.46 181.25 482.01 181.66Q481.55 182.06 480.76 182.06" fill="white" fill-opacity="0.7"/>
<path d="M494.92 197.64L492.76 197.64L492.76 188.21L488.92 188.21L488.92 186.24L492.76 186.24L492.76 183.48Q492.76 181.92 493.74 181.02Q494.73 180.12 496.46 180.12L500.32 180.12L500.32 182.09L496.46 182.09Q494.92 182.09 494.92 183.48L494.92 186.24L500.32 186.24L500.32 188.21L494.92 188.21" fill="white" fill-opacity="0.7"/>
<path d="M515.32 197.64L504.04 197.64L504.04 195.67L508.72 195.67L508.72 186.41L504.52 186.41L504.52 184.44L510.88 184.44L510.88 195.67L515.32 195.67L515.32 197.64M509.56 182.06Q508.77 182.06 508.31 181.66Q507.86 181.25 507.86 180.55Q507.86 179.83 508.31 179.41Q508.77 178.99 509.56 178.99Q510.35 178.99 510.81 179.41Q511.26 179.83 511.26 180.55Q511.26 181.25 510.81 181.66Q510.35 182.06 509.56 182.06" fill="white" fill-opacity="0.7"/>
<path d="M523.79 197.88Q521.39 197.88 519.95 196.54Q518.51 195.19 518.51 192.84L518.51 189.24Q518.51 186.89 519.95 185.54Q521.39 184.20 523.79 184.20Q526.07 184.20 527.48 185.42Q528.88 186.65 528.95 188.76L526.79 188.76Q526.72 187.49 525.93 186.80Q525.14 186.12 523.79 186.12Q522.38 186.12 521.52 186.92Q520.67 187.73 520.67 189.22L520.67 192.84Q520.67 194.33 521.52 195.14Q522.38 195.96 523.79 195.96Q525.14 195.96 525.93 195.26Q526.72 194.57 526.79 193.32L528.95 193.32Q528.88 195.43 527.48 196.66Q526.07 197.88 523.79 197.88" fill="white" fill-opacity="0.7"/>
<path d="M536.85 197.88Q534.81 197.88 533.61 196.74Q532.41 195.60 532.41 193.75Q532.41 192.53 532.96 191.62Q533.51 190.70 534.50 190.19Q535.48 189.67 536.75 189.67L540.83 189.67L540.83 188.64Q540.83 186.07 538.02 186.07Q536.78 186.07 536.01 186.53Q535.24 186.98 535.19 187.80L533.03 187.80Q533.15 186.24 534.48 185.22Q535.82 184.20 538.02 184.20Q540.42 184.20 541.71 185.35Q542.99 186.50 542.99 188.57L542.99 197.64L540.86 197.64L540.86 195.24L540.81 195.24Q540.62 196.46 539.58 197.17Q538.55 197.88 536.85 197.88M537.38 196.06Q538.96 196.06 539.90 195.29Q540.83 194.52 540.83 193.20L540.83 191.35L536.99 191.35Q535.94 191.35 535.28 191.99Q534.62 192.62 534.62 193.68Q534.62 194.78 535.35 195.42Q536.08 196.06 537.38 196.06" fill="white" fill-opacity="0.7"/>
<path d="M557.56 197.64L553.72 197.64Q552.09 197.64 551.10 196.69Q550.12 195.74 550.12 194.16L550.12 186.41L546.33 186.41L546.33 184.44L550.12 184.44L550.12 180.72L552.28 180.72L552.28 184.44L557.68 184.44L557.68 186.41L552.28 186.41L552.28 194.16Q552.28 194.83 552.68 195.25Q553.07 195.67 553.72 195.67L557.56 195.67" fill="white" fill-opacity="0.7"/>
<path d="M566.80 197.88Q564.47 197.88 563.04 196.48Q561.62 195.07 561.62 192.60L561.62 189.48Q561.62 187.01 563.04 185.60Q564.47 184.20 566.80 184.20Q568.36 184.20 569.52 184.82Q570.69 185.45 571.34 186.58Q571.98 187.70 571.98 189.24L571.98 191.59L563.73 191.59L563.73 192.84Q563.73 194.30 564.57 195.16Q565.41 196.01 566.80 196.01Q568 196.01 568.78 195.54Q569.56 195.07 569.73 194.28L571.89 194.28Q571.67 195.94 570.28 196.91Q568.89 197.88 566.80 197.88M563.73 189.24L563.73 189.91L569.87 189.91L569.87 189.24Q569.87 187.68 569.07 186.83Q568.26 185.98 566.80 185.98Q565.34 185.98 564.53 186.83Q563.73 187.68 563.73 189.24" fill="white" fill-opacity="0.7"/>
<path d="M581.73 197.83L580.67 197.83Q578.46 197.83 577.25 196.84Q576.04 195.84 576.04 194.02L578.20 194.02Q578.20 194.93 578.85 195.44Q579.50 195.96 580.67 195.96L581.73 195.96Q582.93 195.96 583.59 195.43Q584.25 194.90 584.25 193.94Q584.25 192.24 582.69 192.02L579.04 191.50Q577.70 191.30 576.95 190.38Q576.21 189.46 576.21 187.94Q576.21 186.22 577.40 185.23Q578.58 184.25 580.67 184.25L581.73 184.25Q583.65 184.25 584.86 185.20Q586.07 186.14 586.17 187.68L583.98 187.68Q583.94 186.98 583.32 186.53Q582.71 186.07 581.73 186.07L580.67 186.07Q579.57 186.07 578.94 186.58Q578.32 187.08 578.32 187.94Q578.32 189.34 579.59 189.53L583 190.01Q586.36 190.49 586.36 193.94Q586.36 195.79 585.15 196.81Q583.94 197.83 581.73 197.83" fill="white" fill-opacity="0.7"/>
<path d="M616 197.64L611.92 197.64Q610.17 197.64 609.12 196.62Q608.08 195.60 608.08 193.92L608.08 182.09L603.52 182.09L603.52 180.12L610.24 180.12L610.24 193.92Q610.24 194.74 610.70 195.20Q611.15 195.67 611.92 195.67L616 195.67" fill="white" fill-opacity="0.7"/>
<path d="M630.52 197.64L619.24 197.64L619.24 195.67L623.92 195.67L623.92 186.41L619.72 186.41L619.72 184.44L626.08 184.44L626.08 195.67L630.52 195.67L630.52 197.64M624.76 182.06Q623.97 182.06 623.51 181.66Q623.06 181.25 623.06 180.55Q623.06 179.83 623.51 179.41Q623.97 178.99 624.76 178.99Q625.55 178.99 626.01 179.41Q626.46 179.83 626.46 180.55Q626.46 181.25 626.01 181.66Q625.55 182.06 624.76 182.06" fill="white" fill-opacity="0.7"/>
<path d="M636.09 197.64L633.93 197.64L633.93 180.12L636.09 180.12L636.09 189.89L638.61 189.89L642.30 184.44L644.78 184.44L640.53 190.73L645.02 197.64L642.50 197.64L638.66 191.76L636.09 191.76" fill="white" fill-opacity="0.7"/>
<path d="M653.20 197.88Q650.87 197.88 649.44 196.48Q648.02 195.07 648.02 192.60L648.02 189.48Q648.02 187.01 649.44 185.60Q650.87 184.20 653.20 184.20Q654.76 184.20 655.92 184.82Q657.09 185.45 657.74 186.58Q658.38 187.70 658.38 189.24L658.38 191.59L650.13 191.59L650.13 192.84Q650.13 194.30 650.97 195.16Q651.81 196.01 653.20 196.01Q654.40 196.01 655.18 195.54Q655.96 195.07 656.13 194.28L658.29 194.28Q658.07 195.94 656.68 196.91Q655.29 197.88 653.20 197.88M650.13 189.24L650.13 189.91L656.27 189.91L656.27 189.24Q656.27 187.68 655.47 186.83Q654.66 185.98 653.20 185.98Q651.74 185.98 650.93 186.83Q650.13 187.68 650.13 189.24" fill="white" fill-opacity="0.7"/>
<path d="M682.10 197.88Q679.55 197.88 678.04 196.54Q676.53 195.19 676.53 192.84L678.69 192.84Q678.69 194.30 679.62 195.13Q680.56 195.96 682.10 195.96Q683.58 195.96 684.47 195.10Q685.36 194.23 685.36 192.84Q685.36 191.78 684.80 191Q684.23 190.22 683.18 189.94L680.51 189.19Q678.86 188.71 677.91 187.48Q676.96 186.24 676.96 184.56Q676.96 183.17 677.58 182.11Q678.21 181.06 679.34 180.47Q680.46 179.88 681.93 179.88Q683.42 179.88 684.56 180.47Q685.70 181.06 686.34 182.10Q686.99 183.14 686.99 184.51L684.83 184.51Q684.83 183.31 684.02 182.56Q683.20 181.80 681.93 181.80Q680.66 181.80 679.86 182.56Q679.07 183.31 679.07 184.51Q679.07 185.47 679.59 186.16Q680.10 186.84 681.04 187.10L683.78 187.87Q685.53 188.35 686.50 189.68Q687.47 191.02 687.47 192.84Q687.47 195.14 686.01 196.51Q684.54 197.88 682.10 197.88" fill="white" fill-opacity="0.7"/>
<path d="M693.57 197.64L691.41 197.64L691.41 180.12L693.57 180.12L693.57 186.96L693.59 186.96Q693.76 185.64 694.67 184.92Q695.58 184.20 697.10 184.20Q699.09 184.20 700.26 185.42Q701.44 186.65 701.44 188.76L701.44 197.64L699.28 197.64L699.28 189.12Q699.28 187.63 698.52 186.83Q697.77 186.02 696.47 186.02Q695.13 186.02 694.35 186.86Q693.57 187.70 693.57 189.24" fill="white" fill-opacity="0.7"/>
<path d="M710.80 197.83Q708.42 197.83 707.02 196.44Q705.62 195.05 705.62 192.55L705.62 189.53Q705.62 187.01 707.01 185.63Q708.40 184.25 710.80 184.25Q713.20 184.25 714.59 185.63Q715.98 187.01 715.98 189.53L715.98 192.55Q715.98 195.05 714.58 196.44Q713.18 197.83 710.80 197.83M710.80 195.91Q712.22 195.91 713.02 195.12Q713.82 194.33 713.82 192.79L713.82 189.29Q713.82 187.75 713.02 186.96Q712.22 186.17 710.80 186.17Q709.41 186.17 708.59 186.96Q707.78 187.75 707.78 189.29L707.78 192.79Q707.78 194.33 708.59 195.12Q709.41 195.91 710.80 195.91" fill="white" fill-opacity="0.7"/>
<path d="M722.37 201.96L720.21 201.96L720.21 184.44L722.37 184.44L722.37 186.96L722.39 186.96Q722.56 185.66 723.52 184.93Q724.48 184.20 725.97 184.20Q727.96 184.20 729.14 185.51Q730.31 186.82 730.31 189.10L730.31 192.96Q730.31 195.24 729.14 196.56Q727.96 197.88 725.97 197.88Q724.48 197.88 723.52 197.14Q722.56 196.39 722.39 195.12L722.32 195.12L722.37 198.12L722.37 201.96M725.25 196.01Q726.62 196.01 727.38 195.29Q728.15 194.57 728.15 192.96L728.15 189.12Q728.15 187.49 727.38 186.78Q726.62 186.07 725.25 186.07Q723.93 186.07 723.15 186.91Q722.37 187.75 722.37 189.24L722.37 192.84Q722.37 194.33 723.15 195.17Q723.93 196.01 725.25 196.01" fill="white" fill-opacity="0.7"/>
<path d="M740.13 197.83L739.07 197.83Q736.86 197.83 735.65 196.84Q734.44 195.84 734.44 194.02L736.60 194.02Q736.60 194.93 737.25 195.44Q737.90 195.96 739.07 195.96L740.13 195.96Q741.33 195.96 741.99 195.43Q742.65 194.90 742.65 193.94Q742.65 192.24 741.09 192.02L737.44 191.50Q736.10 191.30 735.35 190.38Q734.61 189.46 734.61 187.94Q734.61 186.22 735.80 185.23Q736.98 184.25 739.07 184.25L740.13 184.25Q742.05 184.25 743.26 185.20Q744.47 186.14 744.57 187.68L742.38 187.68Q742.34 186.98 741.72 186.53Q741.11 186.07 740.13 186.07L739.07 186.07Q737.97 186.07 737.34 186.58Q736.72 187.08 736.72 187.94Q736.72 189.34 737.99 189.53L741.40 190.01Q744.76 190.49 744.76 193.94Q744.76 195.79 743.55 196.81Q742.34 197.83 740.13 197.83" fill="white" fill-opacity="0.7"/>
<path d="M767.25 197.88Q765.21 197.88 764.01 196.74Q762.81 195.60 762.81 193.75Q762.81 192.53 763.36 191.62Q763.91 190.70 764.90 190.19Q765.88 189.67 767.15 189.67L771.23 189.67L771.23 188.64Q771.23 186.07 768.42 186.07Q767.18 186.07 766.41 186.53Q765.64 186.98 765.59 187.80L763.43 187.80Q763.55 186.24 764.88 185.22Q766.22 184.20 768.42 184.20Q770.82 184.20 772.11 185.35Q773.39 186.50 773.39 188.57L773.39 197.64L771.26 197.64L771.26 195.24L771.21 195.24Q771.02 196.46 769.98 197.17Q768.95 197.88 767.25 197.88M767.78 196.06Q769.36 196.06 770.30 195.29Q771.23 194.52 771.23 193.20L771.23 191.35L767.39 191.35Q766.34 191.35 765.68 191.99Q765.02 192.62 765.02 193.68Q765.02 194.78 765.75 195.42Q766.48 196.06 767.78 196.06" fill="white" fill-opacity="0.7"/>
<path d="M779.97 197.64L777.81 197.64L777.81 184.44L779.97 184.44L779.97 186.96L779.99 186.96Q780.16 185.64 781.07 184.92Q781.98 184.20 783.50 184.20Q785.49 184.20 786.66 185.42Q787.84 186.65 787.84 188.76L787.84 197.64L785.68 197.64L785.68 189.14Q785.68 187.63 784.92 186.83Q784.17 186.02 782.87 186.02Q781.53 186.02 780.75 186.86Q779.97 187.70 779.97 189.24" fill="white" fill-opacity="0.7"/>
<path d="M796.43 197.88Q794.46 197.88 793.28 196.56Q792.09 195.24 792.09 192.98L792.09 189.12Q792.09 186.84 793.26 185.52Q794.44 184.20 796.43 184.20Q797.92 184.20 798.89 184.94Q799.86 185.69 800.06 186.96L800.08 186.96L800.03 183.96L800.03 180.12L802.19 180.12L802.19 197.64L800.03 197.64L800.03 195.12L800.01 195.12Q799.84 196.42 798.88 197.15Q797.92 197.88 796.43 197.88M797.15 196.01Q798.50 196.01 799.26 195.17Q800.03 194.33 800.03 192.84L800.03 189.24Q800.03 187.75 799.26 186.91Q798.50 186.07 797.15 186.07Q795.78 186.07 795.02 186.78Q794.25 187.49 794.25 189.12L794.25 192.96Q794.25 194.57 795.02 195.29Q795.78 196.01 797.15 196.01" fill="white" fill-opacity="0.7"/>
<path d="M826.19 197.88Q823.79 197.88 822.40 196.54Q821.01 195.19 821.01 192.84L821.01 184.92Q821.01 182.57 822.40 181.22Q823.79 179.88 826.19 179.88Q828.54 179.88 829.94 181.24Q831.33 182.59 831.33 184.92L829.17 184.92Q829.17 183.43 828.39 182.63Q827.61 181.82 826.19 181.82Q824.78 181.82 823.97 182.63Q823.17 183.43 823.17 184.92L823.17 192.84Q823.17 194.33 823.97 195.13Q824.78 195.94 826.19 195.94Q827.61 195.94 828.39 195.13Q829.17 194.33 829.17 192.84L831.33 192.84Q831.33 195.17 829.94 196.52Q828.54 197.88 826.19 197.88" fill="white" fill-opacity="0.7"/>
<path d="M840.40 197.83Q838.02 197.83 836.62 196.44Q835.22 195.05 835.22 192.55L835.22 189.53Q835.22 187.01 836.61 185.63Q838 184.25 840.40 184.25Q842.80 184.25 844.19 185.63Q845.58 187.01 845.58 189.53L845.58 192.55Q845.58 195.05 844.18 196.44Q842.78 197.83 840.40 197.83M840.40 195.91Q841.82 195.91 842.62 195.12Q843.42 194.33 843.42 192.79L843.42 189.29Q843.42 187.75 842.62 186.96Q841.82 186.17 840.40 186.17Q839.01 186.17 838.19 186.96Q837.38 187.75 837.38 189.29L837.38 192.79Q837.38 194.33 838.19 195.12Q839.01 195.91 840.40 195.91" fill="white" fill-opacity="0.7"/>
<path d="M851.06 197.64L849.04 197.64L849.04 184.44L850.91 184.44L850.91 186.19L850.96 186.19Q851.08 185.30 851.67 184.75Q852.26 184.20 853.17 184.20Q854.03 184.20 854.63 184.70Q855.23 185.21 855.50 186.07L855.52 186.07Q855.69 185.21 856.28 184.70Q856.86 184.20 857.78 184.20Q859.05 184.20 859.80 185.15Q860.56 186.10 860.56 187.61L860.56 197.64L858.54 197.64L858.54 187.58Q858.54 186.79 858.16 186.32Q857.78 185.86 857.10 185.86Q856.46 185.86 856.07 186.31Q855.69 186.77 855.69 187.56L855.69 197.64L853.91 197.64L853.91 187.58Q853.91 186.79 853.53 186.32Q853.14 185.86 852.50 185.86Q851.82 185.86 851.44 186.31Q851.06 186.77 851.06 187.56" fill="white" fill-opacity="0.7"/>
<path d="M865.46 197.64L863.44 197.64L863.44 184.44L865.31 184.44L865.31 186.19L865.36 186.19Q865.48 185.30 866.07 184.75Q866.66 184.20 867.57 184.20Q868.43 184.20 869.03 184.70Q869.63 185.21 869.90 186.07L869.92 186.07Q870.09 185.21 870.68 184.70Q871.26 184.20 872.18 184.20Q873.45 184.20 874.20 185.15Q874.96 186.10 874.96 187.61L874.96 197.64L872.94 197.64L872.94 187.58Q872.94 186.79 872.56 186.32Q872.18 185.86 871.50 185.86Q870.86 185.86 870.47 186.31Q870.09 186.77 870.09 187.56L870.09 197.64L868.31 197.64L868.31 187.58Q868.31 186.79 867.93 186.32Q867.54 185.86 866.90 185.86Q866.22 185.86 865.84 186.31Q865.46 186.77 865.46 187.56" fill="white" fill-opacity="0.7"/>
<path d="M883.60 197.88Q881.27 197.88 879.84 196.48Q878.42 195.07 878.42 192.60L878.42 189.48Q878.42 187.01 879.84 185.60Q881.27 184.20 883.60 184.20Q885.16 184.20 886.32 184.82Q887.49 185.45 888.14 186.58Q888.78 187.70 888.78 189.24L888.78 191.59L880.53 191.59L880.53 192.84Q880.53 194.30 881.37 195.16Q882.21 196.01 883.60 196.01Q884.80 196.01 885.58 195.54Q886.36 195.07 886.53 194.28L888.69 194.28Q888.47 195.94 887.08 196.91Q885.69 197.88 883.60 197.88M880.53 189.24L880.53 189.91L886.67 189.91L886.67 189.24Q886.67 187.68 885.87 186.83Q885.06 185.98 883.60 185.98Q882.14 185.98 881.33 186.83Q880.53 187.68 880.53 189.24" fill="white" fill-opacity="0.7"/>
<path d="M895.65 197.64L893.49 197.64L893.49 184.44L895.65 184.44L895.65 186.96L895.70 186.96Q895.86 185.69 896.78 184.94Q897.69 184.20 899.22 184.20Q901.29 184.20 902.40 185.44Q903.52 186.67 903.52 188.95L903.52 190.08L901.36 190.08L901.36 188.95Q901.36 186.07 898.55 186.07Q897.14 186.07 896.39 186.89Q895.65 187.70 895.65 189.24" fill="white" fill-opacity="0.7"/>
<path d="M912.59 197.88Q910.19 197.88 908.75 196.54Q907.31 195.19 907.31 192.84L907.31 189.24Q907.31 186.89 908.75 185.54Q910.19 184.20 912.59 184.20Q914.87 184.20 916.28 185.42Q917.68 186.65 917.75 188.76L915.59 188.76Q915.52 187.49 914.73 186.80Q913.94 186.12 912.59 186.12Q911.18 186.12 910.32 186.92Q909.47 187.73 909.47 189.22L909.47 192.84Q909.47 194.33 910.32 195.14Q911.18 195.96 912.59 195.96Q913.94 195.96 914.73 195.26Q915.52 194.57 915.59 193.32L917.75 193.32Q917.68 195.43 916.28 196.66Q914.87 197.88 912.59 197.88" fill="white" fill-opacity="0.7"/>
<path d="M932.92 197.64L921.64 197.64L921.64 195.67L926.32 195.67L926.32 186.41L922.12 186.41L922.12 184.44L928.48 184.44L928.48 195.67L932.92 195.67L932.92 197.64M927.16 182.06Q926.37 182.06 925.91 181.66Q925.46 181.25 925.46 180.55Q925.46 179.83 925.91 179.41Q926.37 178.99 927.16 178.99Q927.95 178.99 928.41 179.41Q928.86 179.83 928.86 180.55Q928.86 181.25 928.41 181.66Q927.95 182.06 927.16 182.06" fill="white" fill-opacity="0.7"/>
<path d="M940.05 197.88Q938.01 197.88 936.81 196.74Q935.61 195.60 935.61 193.75Q935.61 192.53 936.16 191.62Q936.71 190.70 937.70 190.19Q938.68 189.67 939.95 189.67L944.03 189.67L944.03 188.64Q944.03 186.07 941.22 186.07Q939.98 186.07 939.21 186.53Q938.44 186.98 938.39 187.80L936.23 187.80Q936.35 186.24 937.68 185.22Q939.02 184.20 941.22 184.20Q943.62 184.20 944.91 185.35Q946.19 186.50 946.19 188.57L946.19 197.64L944.06 197.64L944.06 195.24L944.01 195.24Q943.82 196.46 942.78 197.17Q941.75 197.88 940.05 197.88M940.58 196.06Q942.16 196.06 943.10 195.29Q944.03 194.52 944.03 193.20L944.03 191.35L940.19 191.35Q939.14 191.35 938.48 191.99Q937.82 192.62 937.82 193.68Q937.82 194.78 938.55 195.42Q939.28 196.06 940.58 196.06" fill="white" fill-opacity="0.7"/>
<path d="M961.60 197.64L957.52 197.64Q955.77 197.64 954.72 196.62Q953.68 195.60 953.68 193.92L953.68 182.09L949.12 182.09L949.12 180.12L955.84 180.12L955.84 193.92Q955.84 194.74 956.30 195.20Q956.75 195.67 957.52 195.67L961.60 195.67" fill="white" fill-opacity="0.7"/>
<path d="M984.52 197.64L982.36 197.64L982.36 188.21L978.52 188.21L978.52 186.24L982.36 186.24L982.36 183.48Q982.36 181.92 983.34 181.02Q984.33 180.12 986.06 180.12L989.92 180.12L989.92 182.09L986.06 182.09Q984.52 182.09 984.52 183.48L984.52 186.24L989.92 186.24L989.92 188.21L984.52 188.21" fill="white" fill-opacity="0.7"/>
<path d="M998.80 197.83Q996.42 197.83 995.02 196.44Q993.62 195.05 993.62 192.55L993.62 189.53Q993.62 187.01 995.01 185.63Q996.40 184.25 998.80 184.25Q1001.20 184.25 1002.59 185.63Q1003.98 187.01 1003.98 189.53L1003.98 192.55Q1003.98 195.05 1002.58 196.44Q1001.18 197.83 998.80 197.83M998.80 195.91Q1000.22 195.91 1001.02 195.12Q1001.82 194.33 1001.82 192.79L1001.82 189.29Q1001.82 187.75 1001.02 186.96Q1000.22 186.17 998.80 186.17Q997.41 186.17 996.59 186.96Q995.78 187.75 995.78 189.29L995.78 192.79Q995.78 194.33 996.59 195.12Q997.41 195.91 998.80 195.91" fill="white" fill-opacity="0.7"/>
<path d="M1010.85 197.64L1008.69 197.64L1008.69 184.44L1010.85 184.44L1010.85 186.96L1010.90 186.96Q1011.06 185.69 1011.98 184.94Q1012.89 184.20 1014.42 184.20Q1016.49 184.20 1017.60 185.44Q1018.72 186.67 1018.72 188.95L1018.72 190.08L1016.56 190.08L1016.56 188.95Q1016.56 186.07 1013.75 186.07Q1012.34 186.07 1011.59 186.89Q1010.85 187.70 1010.85 189.24" fill="white" fill-opacity="0.7"/>
<path d="M76.74 229.64L72.21 229.64L72.21 212.12L76.74 212.12Q78.45 212.12 79.68 212.77Q80.92 213.42 81.60 214.59Q82.29 215.77 82.29 217.38L82.29 224.36Q82.29 225.97 81.60 227.16Q80.92 228.34 79.68 228.99Q78.45 229.64 76.74 229.64M74.37 214.04L74.37 227.72L76.74 227.72Q78.33 227.72 79.23 226.83Q80.13 225.94 80.13 224.36L80.13 217.38Q80.13 215.82 79.23 214.93Q78.33 214.04 76.74 214.04" fill="white" fill-opacity="0.7"/>
<path d="M97.72 229.64L86.44 229.64L86.44 227.67L91.12 227.67L91.12 218.41L86.92 218.41L86.92 216.44L93.28 216.44L93.28 227.67L97.72 227.67L97.72 229.64M91.96 214.06Q91.17 214.06 90.71 213.66Q90.26 213.25 90.26 212.55Q90.26 211.83 90.71 211.41Q91.17 210.99 91.96 210.99Q92.75 210.99 93.21 211.41Q93.66 211.83 93.66 212.55Q93.66 213.25 93.21 213.66Q92.75 214.06 91.96 214.06" fill="white" fill-opacity="0.7"/>
<path d="M106.36 233.96L102.66 233.96L102.66 231.99L106.38 231.99Q107.51 231.99 108.16 231.36Q108.81 230.72 108.81 229.64L108.81 228.44L108.86 226.28L108.78 226.28Q108.59 227.46 107.66 228.09Q106.72 228.73 105.30 228.73Q103.26 228.73 102.09 227.43Q100.91 226.14 100.91 223.88L100.91 221.10Q100.91 218.84 102.09 217.52Q103.26 216.20 105.30 216.20Q106.72 216.20 107.66 216.87Q108.59 217.54 108.78 218.72L108.83 218.72L108.83 216.44L110.97 216.44L110.97 229.64Q110.97 231.63 109.73 232.80Q108.50 233.96 106.36 233.96M105.95 226.93Q107.30 226.93 108.06 226.09Q108.83 225.25 108.83 223.76L108.83 221.24Q108.83 219.75 108.06 218.91Q107.30 218.07 105.95 218.07Q104.58 218.07 103.83 218.86Q103.07 219.66 103.07 221L103.07 224Q103.07 225.34 103.83 226.14Q104.58 226.93 105.95 226.93" fill="white" fill-opacity="0.7"/>
<path d="M126.52 229.64L115.24 229.64L115.24 227.67L119.92 227.67L119.92 218.41L115.72 218.41L115.72 216.44L122.08 216.44L122.08 227.67L126.52 227.67L126.52 229.64M120.76 214.06Q119.97 214.06 119.51 213.66Q119.06 213.25 119.06 212.55Q119.06 211.83 119.51 211.41Q119.97 210.99 120.76 210.99Q121.55 210.99 122.01 211.41Q122.46 211.83 122.46 212.55Q122.46 213.25 122.01 213.66Q121.55 214.06 120.76 214.06" fill="white" fill-opacity="0.7"/>
<path d="M140.80 229.64L130.72 229.64L130.72 212.12L132.88 212.12L132.88 227.67L140.80 227.67" fill="white" fill-opacity="0.7"/>
<path d="M149.20 229.83Q146.82 229.83 145.42 228.44Q144.02 227.05 144.02 224.55L144.02 221.53Q144.02 219.01 145.41 217.63Q146.80 216.25 149.20 216.25Q151.60 216.25 152.99 217.63Q154.38 219.01 154.38 221.53L154.38 224.55Q154.38 227.05 152.98 228.44Q151.58 229.83 149.20 229.83M149.20 227.91Q150.62 227.91 151.42 227.12Q152.22 226.33 152.22 224.79L152.22 221.29Q152.22 219.75 151.42 218.96Q150.62 218.17 149.20 218.17Q147.81 218.17 146.99 218.96Q146.18 219.75 146.18 221.29L146.18 224.79Q146.18 226.33 146.99 227.12Q147.81 227.91 149.20 227.91" fill="white" fill-opacity="0.7"/>
<path d="M163.79 229.88Q161.39 229.88 159.95 228.54Q158.51 227.19 158.51 224.84L158.51 221.24Q158.51 218.89 159.95 217.54Q161.39 216.20 163.79 216.20Q166.07 216.20 167.48 217.42Q168.88 218.65 168.95 220.76L166.79 220.76Q166.72 219.49 165.93 218.80Q165.14 218.12 163.79 218.12Q162.38 218.12 161.52 218.92Q160.67 219.73 160.67 221.22L160.67 224.84Q160.67 226.33 161.52 227.14Q162.38 227.96 163.79 227.96Q165.14 227.96 165.93 227.26Q166.72 226.57 166.79 225.32L168.95 225.32Q168.88 227.43 167.48 228.66Q166.07 229.88 163.79 229.88" fill="white" fill-opacity="0.7"/>
<path d="M175.29 229.64L173.13 229.64L173.13 212.12L175.29 212.12L175.29 221.89L177.81 221.89L181.50 216.44L183.98 216.44L179.73 222.73L184.22 229.64L181.70 229.64L177.86 223.76L175.29 223.76" fill="white" fill-opacity="0.7"/>
<path d="M192.40 229.88Q190.07 229.88 188.64 228.48Q187.22 227.07 187.22 224.60L187.22 221.48Q187.22 219.01 188.64 217.60Q190.07 216.20 192.40 216.20Q193.96 216.20 195.12 216.82Q196.29 217.45 196.94 218.58Q197.58 219.70 197.58 221.24L197.58 223.59L189.33 223.59L189.33 224.84Q189.33 226.30 190.17 227.16Q191.01 228.01 192.40 228.01Q193.60 228.01 194.38 227.54Q195.16 227.07 195.33 226.28L197.49 226.28Q197.27 227.94 195.88 228.91Q194.49 229.88 192.40 229.88M189.33 221.24L189.33 221.91L195.47 221.91L195.47 221.24Q195.47 219.68 194.67 218.83Q193.86 217.98 192.40 217.98Q190.94 217.98 190.13 218.83Q189.33 219.68 189.33 221.24" fill="white" fill-opacity="0.7"/>
<path d="M204.45 229.64L202.29 229.64L202.29 216.44L204.45 216.44L204.45 218.96L204.50 218.96Q204.66 217.69 205.58 216.94Q206.49 216.20 208.02 216.20Q210.09 216.20 211.20 217.44Q212.32 218.67 212.32 220.95L212.32 222.08L210.16 222.08L210.16 220.95Q210.16 218.07 207.35 218.07Q205.94 218.07 205.19 218.89Q204.45 219.70 204.45 221.24" fill="white" fill-opacity="0.7"/>
<path d="M221.20 229.88Q220.31 229.88 219.77 229.35Q219.23 228.82 219.23 227.98Q219.23 227.10 219.77 226.54Q220.31 225.99 221.20 225.99Q222.09 225.99 222.63 226.54Q223.17 227.10 223.17 227.98Q223.17 228.82 222.63 229.35Q222.09 229.88 221.20 229.88" fill="white" fill-opacity="0.7"/>
<path d="M76.11 136.06L66.42 136.06L84.56 65.98L97.14 65.98L115.18 136.06L105.49 136.06L101.07 117.82L80.53 117.82L76.11 136.06M87.54 88.92L82.45 109.95L99.15 109.95L94.16 89.02Q92.72 83.26 91.86 79.23Q90.99 75.20 90.80 73.76Q90.61 75.20 89.74 79.23Q88.88 83.26 87.54 88.92M137.55 136.06L128.05 136.06L128.05 65.98L150.80 65.98Q157.52 65.98 162.42 68.57Q167.31 71.16 170 75.82Q172.69 80.48 172.69 86.91Q172.69 93.24 170 97.90Q167.31 102.56 162.37 105.15Q157.42 107.74 150.80 107.74L137.55 107.74L137.55 136.06M137.55 74.43L137.55 99.29L150.80 99.29Q156.37 99.29 159.63 95.88Q162.90 92.48 162.90 86.91Q162.90 81.24 159.63 77.84Q156.37 74.43 150.80 74.43L137.55 74.43M225.10 136.06L186.90 136.06L186.90 127.42L201.20 127.42L201.20 74.62L186.90 74.62L186.90 65.98L225.10 65.98L225.10 74.62L210.80 74.62L210.80 127.42L225.10 127.42L225.10 136.06M263.98 137.02Q253.62 137.02 247.47 131.60Q241.33 126.17 241.33 116.67L250.83 116.67Q250.83 122.24 254.38 125.40Q257.94 128.57 263.98 128.57Q269.74 128.57 273.15 125.36Q276.56 122.14 276.56 116.76Q276.56 112.73 274.35 109.71Q272.14 106.68 268.11 105.63L257.74 102.84Q250.93 100.92 246.94 95.88Q242.96 90.84 242.96 83.93Q242.96 78.27 245.50 74Q248.05 69.72 252.66 67.37Q257.26 65.02 263.31 65.02Q269.46 65.02 274.11 67.37Q278.77 69.72 281.36 73.95Q283.95 78.17 283.95 83.74L274.54 83.74Q274.54 79.13 271.42 76.25Q268.30 73.37 263.31 73.37Q258.32 73.37 255.30 76.25Q252.27 79.13 252.27 83.74Q252.27 87.48 254.29 90.03Q256.30 92.57 259.95 93.63L270.61 96.51Q277.81 98.43 281.84 103.85Q285.87 109.28 285.87 116.76Q285.87 122.91 283.18 127.47Q280.50 132.03 275.55 134.52Q270.61 137.02 263.98 137.02M342.51 136.06L301.71 136.06L301.71 65.98L342.51 65.98L342.51 74.52L311.12 74.52L311.12 95.36L339.15 95.36L339.15 103.61L311.12 103.61L311.12 127.52L342.51 127.52L342.51 136.06M383.60 136.06L374.10 136.06L374.10 74.62L355.09 74.62L355.09 65.98L402.51 65.98L402.51 74.62L383.60 74.62L383.60 136.06M436.40 137.02Q426.51 137.02 421.18 131.55Q415.86 126.08 415.86 116.67L415.86 65.98L425.36 65.98L425.36 116.67Q425.36 122.24 428.10 125.40Q430.83 128.57 436.40 128.57Q441.87 128.57 444.70 125.40Q447.54 122.24 447.54 116.67L447.54 65.98L457.04 65.98L457.04 116.67Q457.04 126.17 451.71 131.60Q446.38 137.02 436.40 137.02M551.98 137.02Q542.29 137.02 536.58 131.60Q530.86 126.17 530.86 116.67L530.86 85.28Q530.86 75.87 536.58 70.44Q542.29 65.02 551.98 65.02Q561.58 65.02 567.30 70.49Q573.01 75.96 573.01 85.28L563.50 85.28Q563.50 79.61 560.43 76.54Q557.36 73.47 551.98 73.47Q546.51 73.47 543.44 76.54Q540.37 79.61 540.37 85.28L540.37 116.67Q540.37 122.43 543.44 125.50Q546.51 128.57 551.98 128.57Q557.36 128.57 560.43 125.50Q563.50 122.43 563.50 116.67L563.50 107.55L549.87 107.55L549.87 99.10L573.01 99.10L573.01 116.67Q573.01 126.08 567.30 131.55Q561.58 137.02 551.98 137.02M609.20 137.02Q599.60 137.02 594.03 131.45Q588.46 125.88 588.46 115.71L588.46 86.24Q588.46 76.16 594.03 70.59Q599.60 65.02 609.20 65.02Q618.80 65.02 624.37 70.54Q629.94 76.06 629.94 86.24L629.94 115.71Q629.94 125.88 624.37 131.45Q618.80 137.02 609.20 137.02M609.20 128.57Q614.58 128.57 617.50 125.50Q620.43 122.43 620.43 116.67L620.43 85.28Q620.43 79.61 617.55 76.54Q614.67 73.47 609.20 73.47Q603.73 73.47 600.85 76.54Q597.97 79.61 597.97 85.28L597.97 116.67Q597.97 122.43 600.90 125.50Q603.82 128.57 609.20 128.57M673.14 136.06L660.37 136.06L642.42 65.98L652.21 65.98L663.82 113.21Q664.98 117.72 665.79 121.90Q666.61 126.08 666.99 128.28Q667.28 126.08 668.19 121.85Q669.10 117.63 670.16 113.12L681.39 65.98L691.18 65.98L673.14 136.06M806.19 136.06L765.49 136.06L765.49 65.98L774.99 65.98L774.99 127.42L806.19 127.42L806.19 136.06M824.91 136.06L815.22 136.06L833.36 65.98L845.94 65.98L863.98 136.06L854.29 136.06L849.87 117.82L829.33 117.82L824.91 136.06M836.34 88.92L831.25 109.95L847.95 109.95L842.96 89.02Q841.52 83.26 840.66 79.23Q839.79 75.20 839.60 73.76Q839.41 75.20 838.54 79.23Q837.68 83.26 836.34 88.92M898.54 136.06L876.94 136.06L876.94 65.98L897.20 65.98Q906.90 65.98 912.51 70.83Q918.13 75.68 918.13 84.12Q918.13 89.60 914.72 93.87Q911.31 98.14 905.94 99.10L905.94 99.39Q909.97 99.87 913.09 102.27Q916.21 104.67 917.98 108.36Q919.76 112.06 919.76 116.48Q919.76 125.50 914.05 130.78Q908.34 136.06 898.54 136.06M886.26 74.33L886.26 95.55L897.10 95.55Q902.48 95.55 905.55 92.72Q908.62 89.88 908.62 84.99Q908.62 80 905.55 77.16Q902.48 74.33 897.20 74.33L886.26 74.33M886.26 103.61L886.26 127.71L897.68 127.71Q903.54 127.71 906.90 124.59Q910.26 121.47 910.26 116.09Q910.26 110.52 906.90 107.07Q903.54 103.61 897.68 103.61L886.26 103.61M954.80 137.02Q945.20 137.02 939.63 131.45Q934.06 125.88 934.06 115.71L934.06 86.24Q934.06 76.16 939.63 70.59Q945.20 65.02 954.80 65.02Q964.40 65.02 969.97 70.54Q975.54 76.06 975.54 86.24L975.54 115.71Q975.54 125.88 969.97 131.45Q964.40 137.02 954.80 137.02M954.80 128.57Q960.18 128.57 963.10 125.50Q966.03 122.43 966.03 116.67L966.03 85.28Q966.03 79.61 963.15 76.54Q960.27 73.47 954.80 73.47Q949.33 73.47 946.45 76.54Q943.57 79.61 943.57 85.28L943.57 116.67Q943.57 122.43 946.50 125.50Q949.42 128.57 954.80 128.57M1012.40 137.02Q1002.51 137.02 997.18 131.55Q991.86 126.08 991.86 116.67L991.86 65.98L1001.36 65.98L1001.36 116.67Q1001.36 122.24 1004.10 125.40Q1006.83 128.57 1012.40 128.57Q1017.87 128.57 1020.70 125.40Q1023.54 122.24 1023.54 116.67L1023.54 65.98L1033.04 65.98L1033.04 116.67Q1033.04 126.17 1027.71 131.60Q1022.38 137.02 1012.40 137.02M1059.15 136.06L1049.74 136.06L1049.74 65.98L1071.44 65.98Q1077.87 65.98 1082.67 68.52Q1087.47 71.07 1090.16 75.63Q1092.85 80.19 1092.85 86.33Q1092.85 93.44 1089.25 98.52Q1085.65 103.61 1079.70 105.72L1093.81 136.06L1083.34 136.06LNaN 106.78L1059.15 106.78L1059.15 136.06M1059.15 74.43L1059.15 98.33L1071.44 98.33Q1076.82 98.33 1079.94 95.07Q1083.06 91.80 1083.06 86.43Q1083.06 80.96 1079.89 77.69Q1076.72 74.43 1071.44 74.43L1059.15 74.43M1128.94 136.06L1107.34 136.06L1107.34 65.98L1127.60 65.98Q1137.30 65.98 1142.91 70.83Q1148.53 75.68 1148.53 84.12Q1148.53 89.60 1145.12 93.87Q1141.71 98.14 1136.34 99.10L1136.34 99.39Q1140.37 99.87 1143.49 102.27Q1146.61 104.67 1148.38 108.36Q1150.16 112.06 1150.16 116.48Q1150.16 125.50 1144.45 130.78Q1138.74 136.06 1128.94 136.06M1116.66 74.33L1116.66 95.55L1127.50 95.55Q1132.88 95.55 1135.95 92.72Q1139.02 89.88 1139.02 84.99Q1139.02 80 1135.95 77.16Q1132.88 74.33 1127.60 74.33L1116.66 74.33M1116.66 103.61L1116.66 127.71L1128.08 127.71Q1133.94 127.71 1137.30 124.59Q1140.66 121.47 1140.66 116.09Q1140.66 110.52 1137.30 107.07Q1133.94 103.61 1128.08 103.61L1116.66 103.61M1204.30 136.06L1166.10 136.06L1166.10 127.42L1180.40 127.42L1180.40 74.62L1166.10 74.62L1166.10 65.98L1204.30 65.98L1204.30 74.62L1190 74.62L1190 127.42L1204.30 127.42L1204.30 136.06M1232.05 136.06L1222.54 136.06L1222.54 65.98L1232.05 65.98L1232.05 95.55L1253.55 95.55L1253.55 65.98L1263.06 65.98L1263.06 136.06L1253.55 136.06L1253.55 104.19L1232.05 104.19" fill="url(#paint2_linear_0_1)"/>
<g id="Group 1">
<rect id="Rectangle 1" x="26" y="168" width="12" height="184" rx="5" fill="url(#paint3_linear_0_1)" fill-opacity="0.9"/>
</g>
<g id="Group 1_2">
<rect id="Rectangle 2" x="26" y="38" width="12" height="119" rx="5" fill="url(#paint4_linear_0_1)" fill-opacity="0.9"/>
</g>
<ellipse id="Ellipse 1" cx="148.5" cy="573" rx="215.5" ry="214" fill="url(#paint5_linear_0_1)" fill-opacity="0.4"/>
<rect id="Rectangle 3" x="1229" y="48" width="300" height="300" rx="25" fill="#FFFBFB" fill-opacity="0.9"/>
<g id="placeholder-logo"><g transform="translate(1229,48) translate(0.0,60.0) scale(1.2000)"><g fill="#666666">
  <path d="m88.05,27.65c-3.15,4 -3.2,51.2 -0.05,54.35c2.75,2.75 71.7,3.15 74.45,0.45c2.85,-2.9 2.3,-53.85 -0.65,-55.9c-1.95,-1.35 -7.15,-1.55 -36.95,-1.55l-34.7,0l-2.1,2.65zm69.45,3.35c0.65,0 1,8.6 1,23.75l0,23.75l-33,0l-33,0l-0.25,-23c-0.15,-12.6 -0.1,-23.45 0.15,-24.1c0.35,-0.85 8.9,-1.05 32.25,-0.75c17.55,0.2 32.3,0.35 32.85,0.35z"/>
  <path d="m99.15,37.3c-6.85,7.35 4.25,17.35 11.4,10.25c1.35,-1.35 2.45,-3.65 2.45,-5.05c0,-6.45 -9.35,-9.95 -13.85,-5.2z"/>
  <path d="m135,42.5c-0.7,0.85 -5.25,5.15 -10.1,9.6l-8.85,8.1l-3.2,-3.2l-3.15,-3.15l-6.35,6.3c-5.55,5.5 -6.35,6.75 -6.35,10.05l0,3.8l28.5,0l28.5,0l0,-8.6l0,-8.55l-8.15,-7.7c-9.35,-8.85 -9.15,-8.7 -10.85,-6.65zm7.25,15.2c0.95,0.9 1.75,2.9 1.75,4.45c6.35,-5.05 4.75,-7.15 4.9,-11.55c0.95,0 0,0 0,0l-6.65,7.1z"/>
  <path d="m53.65,110.75c0.1,4.8 0.45,8.65 0.75,8.5c0.35,-0.15 1.3,-0.25 2.1,-0.25c1.1,0 1.5,-1.2 1.5,-4.75l0,-4.75l3.25,5c4.9,7.5 6.2,6.75 6.55,-3.75c0.25,-8.15 0.15,-8.75 -1.7,-8.75c-1.65,0 -2.05,0.8 -2.3,4.75l-0.3,4.75l-2.8,-4.75c-4.85,-8.25 -7.25,-6.9 -7.05,4z"/>
  <path d="m91,108.9c0,9.65 0.3,10.1 6.1,10.1c5.8,0 7.15,-2.65 1.65,-3.2l-3.25,-0.3l-0.3,-6.75c-0.25,-5.95 -0.55,-6.75 -2.25,-6.75c-1.75,0 -1.95,0.7 -1.95,6.9z"/>
  <path d="m151,102.45c0,0.25 1,2.15 2.25,4.2c1.2,2.1 2.45,5.8 2.75,8.25c0.65,5.9 4,6.95 4,1.25c0.05,-2.1 1.25,-5.85 2.95,-8.9l2.9,-5.25l-2.5,0c-1.8,0 -2.8,0.85 -3.75,3.1l-1.3,3.05l-1.25,-3.05c-1.1,-2.6 -6.05,-4.8 -6.05,-2.65z"/>
  <path d="m191,107.45c0,9.05 3.4,8.85 4.25,-0.2c0.45,-5 0.35,-5.25 -1.9,-5.25c-2.2,0 -2.35,0.4 -2.35,5.45z"/>
  <path d="m180.8,104.75c-1.3,5.35 0.65,13.6 3.45,14.35c2.3,0.6 2.75,0.4 2.75,-1.2c0,-1.05 -0.45,-1.9 -1,-1.9c-0.55,0 -1,-1.6 -1,-3.5c0,-1.95 0.45,-3.5 1,-3.5c0.55,0 1,-0.7 1,-1.5c0,-0.85 -0.45,-1.5 -1,-1.5c-0.55,0 -1,-0.7 -1,-1.5c0,-2.1 -3.65,-1.9 -4.2,0.25z"/>
  <path d="m71.55,106.55c-2.2,2.25 -2.05,9.7 0.3,11.8c4.5,4.1 10.15,0.75 10.15,-6.1c0,-4.85 -2,-7.25 -6,-7.25c-1.55,0 -3.55,0.7 -4.45,1.55zm6.25,5.8c0.25,3.05 0,3.65 -1.6,3.65c-2.3,0 -3.25,-2.65 -2.05,-5.85c1.25,-3.35 3.3,-2.1 3.65,2.2z"/>
  <path d="m105.75,106.1c-2.5,1.45 -2.45,9.95 0.1,12.25c4.3,3.9 10.15,0.35 10.15,-6.2c0,-6 -5.15,-9.05 -10.25,-6.05zm6.05,6.25c0.25,3.05 0,3.65 -1.6,3.65c-2.3,0 -3.25,-2.65 -2.05,-5.85c1.25,-3.35 3.3,-2.1 3.65,2.2z"/>
  <path d="m119.2,106.2c-3.8,3.8 -0.4,12.55 4.4,11.35c1.9,-0.45 2.45,-0.3 2.15,0.65c-0.25,0.7 -1.55,1.2 -2.85,1.1c-4.05,-0.3 -5.35,0.45 -3.85,2.25c0.85,1.05 2.6,1.45 5.35,1.25l4.1,-0.3l0.3,-8.75l0.3,-8.75l-4.35,0c-2.4,0 -4.9,0.55 -5.55,1.2zm6.6,4.45c0.4,2.85 -2.15,4.85 -3.75,2.95c-0.9,-1.1 -0.9,-2 -0.05,-3.6c1.35,-2.5 3.4,-2.15 3.8,0.65z"/>
  <path d="m133.55,106.55c-2.2,2.25 -2.05,9.7 0.3,11.8c4.5,4.1 10.15,0.75 10.15,-6.1c0,-4.85 -2,-7.25 -6,-7.25c-1.55,0 -3.55,0.7 -4.45,1.55zm6.25,5.8c0.25,3.05 0,3.65 -1.6,3.65c-2.3,0 -3.25,-2.65 -2.05,-5.85c1.25,-3.35 3.3,-2.1 3.65,2.2z"/>
  <path d="m167.65,106.85c-3.9,4.3 -0.75,13.15 4.7,13.15c2.4,0 5.65,-2.75 5.65,-4.85c0,-1.4 -2.65,-1.55 -3.5,-0.15c-0.95,1.55 -4.5,1.15 -4.5,-0.5c0,-1.1 1.1,-1.5 4,-1.5c3.15,0 4,-0.35 4,-1.8c0,-5.3 -6.85,-8.25 -10.35,-4.35z"/>
  <path d="m191,117.5c0,2.15 0.4,2.6 2.25,2.3c1.5,-0.2 2.25,-1 2.25,-2.3c0,-1.3 -0.75,-2.1 -2.25,-2.3c-1.85,-0.3 -2.25,0.15 -2.25,2.3z"/>
 </g></g></g>
</g>
<defs>
<linearGradient id="paint0_linear_0_1" x1="0" y1="198" x2="1584" y2="198" gradientUnits="userSpaceOnUse">
<stop stop-color="#3D052C"/>
<stop offset="1"/>
</linearGradient>
<linearGradient id="paint1_linear_0_1" x1="323" y1="-224" x2="323" y2="352" gradientUnits="userSpaceOnUse">
<stop stop-color="#28F6F2" stop-opacity="0.4"/>
<stop offset="1" stop-color="#17908E" stop-opacity="0.7"/>
</linearGradient>
<linearGradient id="paint2_linear_0_1" x1="148.5" y1="38" x2="148.5" y2="140" gradientUnits="userSpaceOnUse">
<stop stop-color="white"/>
<stop offset="1" stop-color="#999999"/>
</linearGradient>
<linearGradient id="paint3_linear_0_1" x1="38" y1="260" x2="26" y2="260" gradientUnits="userSpaceOnUse">
<stop stop-color="#D9D9D9"/>
<stop offset="1" stop-color="#737373"/>
</linearGradient>
<linearGradient id="paint4_linear_0_1" x1="38" y1="97.5" x2="26" y2="97.5" gradientUnits="userSpaceOnUse">
<stop stop-color="#D9D9D9"/>
<stop offset="1" stop-color="#737373"/>
</linearGradient>
<linearGradient id="paint5_linear_0_1" x1="27.5" y1="434.5" x2="148.5" y2="787" gradientUnits="userSpaceOnUse">
<stop stop-color="#2E21BC"/>
<stop offset="1" stop-color="#150F56"/>
</linearGradient>
<clipPath id="clip0_0_1">
<rect width="1584" height="396" fill="white"/>
</clipPath>
</defs>
</svg>
